<?xml version="1.0" standalone="no"?>
<!DOCTYPE svg PUBLIC "-//W3C//DTD SVG 20010904//EN"
 "http://www.w3.org/TR/2001/REC-SVG-20010904/DTD/svg10.dtd">
<svg version="1.0" xmlns="http://www.w3.org/2000/svg"
 width="835.000000pt" height="327.000000pt" viewBox="0 0 835.000000 327.000000"
 preserveAspectRatio="xMidYMid meet">

<g transform="translate(0.000000,327.000000) scale(0.100000,-0.100000)"
fill="#000000" stroke="none">
<path d="M5815 2049 c-49 -39 -98 -77 -109 -84 -10 -7 -17 -18 -15 -24 2 -5
55 28 117 75 62 47 110 89 107 94 -8 13 3 20 -100 -61z"/>
<path d="M2630 1490 c0 -330 3 -510 10 -510 6 0 11 175 12 492 l3 492 163
-273 c145 -241 165 -270 176 -254 7 10 79 129 161 266 82 136 152 247 157 247
4 0 9 -219 11 -487 l2 -488 3 513 c1 319 -2 512 -8 512 -5 0 -82 -121 -171
-270 -89 -148 -165 -268 -169 -265 -4 2 -78 124 -166 270 -87 146 -164 265
-171 265 -10 0 -13 -106 -13 -510z"/>
<path d="M3826 1494 c-143 -429 -176 -540 -152 -513 2 2 76 224 166 492 89
269 166 485 170 480 4 -4 78 -222 165 -483 145 -438 175 -520 175 -480 0 33
-332 1010 -343 1010 -7 0 -86 -221 -181 -506z"/>
<path d="M4680 1485 l0 -515 230 0 c147 0 230 4 230 10 0 6 -80 10 -220 10
l-220 0 0 505 c0 330 -3 505 -10 505 -7 0 -10 -178 -10 -515z"/>
<path d="M5472 1598 c3 -385 4 -405 24 -449 31 -66 78 -115 142 -146 48 -23
69 -28 132 -27 89 1 133 18 197 76 91 84 88 67 91 536 2 281 0 412 -8 412 -7
0 -10 -130 -10 -403 l0 -403 -26 -53 c-87 -173 -324 -202 -453 -56 -66 76 -65
69 -69 513 -2 266 -7 402 -13 402 -7 0 -10 -132 -7 -402z"/>
<path d="M3493 803 c472 -2 1242 -2 1710 0 469 1 83 2 -858 2 -940 0 -1324 -1
-852 -2z"/>
<path d="M4466 633 c-6 -14 -5 -15 5 -6 7 7 10 15 7 18 -3 3 -9 -2 -12 -12z"/>
<path d="M3590 540 l0 -70 35 0 c19 0 35 5 35 10 0 6 -11 10 -25 10 -18 0 -25
5 -25 20 0 15 7 20 25 20 14 0 25 5 25 10 0 6 -11 10 -25 10 -18 0 -25 5 -25
20 0 15 7 20 25 20 14 0 25 5 25 10 0 6 -16 10 -35 10 l-35 0 0 -70z"/>
<path d="M3741 584 c-27 -35 -26 -59 4 -89 24 -25 49 -31 79 -19 28 11 17 20
-19 16 -43 -5 -65 11 -65 48 0 37 22 53 65 48 36 -4 47 5 19 16 -33 13 -63 5
-83 -20z"/>
<path d="M3925 585 c-14 -13 -25 -33 -25 -45 0 -27 43 -70 70 -70 27 0 70 43
70 70 0 27 -43 70 -70 70 -11 0 -32 -11 -45 -25z m83 -7 c7 -7 12 -24 12 -38
0 -33 -17 -50 -50 -50 -33 0 -50 17 -50 50 0 33 17 50 50 50 14 0 31 -5 38
-12z"/>
<path d="M4112 598 c-18 -18 -15 -35 13 -56 14 -11 25 -28 25 -37 0 -13 -6
-16 -25 -13 -30 6 -34 -8 -5 -17 23 -7 50 10 50 32 0 8 -11 24 -25 37 -14 13
-25 29 -25 36 0 8 9 11 25 8 28 -6 34 6 9 16 -22 8 -28 8 -42 -6z"/>
<path d="M4250 540 c0 -40 4 -70 10 -70 6 0 10 24 10 53 l1 52 22 -28 23 -27
21 27 22 28 0 -52 c1 -29 6 -53 11 -53 6 0 10 30 10 70 0 39 -3 70 -7 70 -5 0
-17 -14 -28 -30 -11 -16 -24 -30 -30 -30 -5 0 -19 14 -30 30 -11 16 -23 30
-27 30 -5 0 -8 -31 -8 -70z"/>
<path d="M4440 540 l0 -70 35 0 c19 0 35 5 35 10 0 6 -11 10 -25 10 -18 0 -25
5 -25 20 0 15 7 20 25 20 14 0 25 5 25 10 0 6 -11 10 -25 10 -18 0 -25 5 -25
20 0 15 7 20 25 20 14 0 25 5 25 10 0 6 -16 10 -35 10 l-35 0 0 -70z"/>
<path d="M4560 600 c0 -5 11 -10 25 -10 24 0 25 -3 25 -60 0 -33 4 -60 10 -60
6 0 10 27 10 60 0 57 1 60 25 60 14 0 25 5 25 10 0 6 -27 10 -60 10 -33 0 -60
-4 -60 -10z"/>
<path d="M4730 540 c0 -40 4 -70 10 -70 6 0 10 30 10 70 0 40 -4 70 -10 70 -6
0 -10 -30 -10 -70z"/>
<path d="M4845 585 c-14 -13 -25 -33 -25 -45 0 -47 70 -86 110 -60 11 7 4 10
-25 10 -48 0 -65 14 -65 51 0 36 33 60 74 53 24 -4 28 -3 16 5 -25 18 -60 12
-85 -14z"/>
<path d="M5054 594 c-4 -10 -18 -43 -30 -71 -13 -29 -19 -53 -14 -53 5 0 12 9
15 20 5 15 15 20 40 20 25 0 35 -5 40 -20 3 -11 10 -20 15 -20 8 0 -40 123
-53 136 -4 4 -10 -2 -13 -12z m25 -41 c11 -21 9 -23 -13 -23 -24 0 -25 2 -14
25 6 14 12 24 13 23 1 -2 8 -13 14 -25z"/>
</g>
</svg>
