<?xml version="1.0" standalone="no"?>
<!DOCTYPE svg PUBLIC "-//W3C//DTD SVG 20010904//EN"
 "http://www.w3.org/TR/2001/REC-SVG-20010904/DTD/svg10.dtd">
<svg version="1.0" xmlns="http://www.w3.org/2000/svg"
 width="1080.000000pt" height="1080.000000pt" viewBox="0 0 1080.000000 1080.000000"
 preserveAspectRatio="xMidYMid meet">

<g transform="translate(0.000000,1080.000000) scale(0.100000,-0.100000)"
fill="#000000" stroke="none">
<path d="M8363 6827 c-54 -39 -105 -78 -113 -85 -8 -7 -32 -25 -52 -40 -126
-92 -157 -119 -157 -134 -1 -10 3 -18 7 -18 8 0 220 155 232 169 3 4 46 37 97
74 50 37 94 74 97 82 12 33 -18 21 -111 -48z"/>
<path d="M2042 5678 c2 -782 6 -992 16 -996 9 -3 12 190 12 941 0 519 3 947 7
950 7 8 53 -31 53 -45 0 -5 53 -95 117 -201 64 -106 123 -203 130 -217 8 -14
23 -38 34 -55 10 -16 22 -38 25 -47 4 -10 10 -18 15 -18 5 0 9 -5 9 -10 0 -6
11 -27 24 -48 13 -20 72 -117 131 -215 l107 -178 31 48 c43 66 55 86 64 103 4
8 56 96 117 195 60 99 116 193 125 210 9 16 18 32 22 35 6 6 63 99 72 120 4 8
16 29 27 45 11 17 30 47 42 69 13 21 28 46 33 55 6 9 23 39 39 66 16 28 35 56
42 62 7 7 14 18 16 25 2 6 10 8 16 4 9 -6 12 -227 12 -949 0 -649 3 -942 10
-942 7 0 11 308 11 990 0 976 0 990 -20 993 -13 2 -22 -4 -26 -20 -4 -13 -11
-25 -14 -28 -7 -5 -151 -240 -178 -290 -8 -14 -23 -38 -33 -55 -11 -16 -24
-39 -30 -50 -6 -11 -22 -38 -35 -60 -14 -22 -33 -55 -42 -72 -9 -18 -20 -33
-25 -33 -4 0 -8 -4 -8 -10 0 -5 -59 -107 -132 -226 -129 -214 -132 -217 -149
-196 -26 32 -169 269 -169 280 0 5 -6 15 -14 21 -8 7 -22 26 -31 44 -9 18 -25
46 -35 62 -11 17 -23 37 -27 45 -4 8 -55 95 -115 193 -59 97 -108 179 -108
181 0 3 -17 31 -38 63 -22 32 -41 63 -43 68 -17 40 -54 85 -70 85 -19 0 -19
-22 -17 -992z"/>
<path d="M4698 6627 c-10 -23 -18 -50 -18 -59 0 -9 -4 -19 -9 -22 -5 -3 -12
-22 -16 -42 -3 -20 -10 -44 -15 -53 -5 -9 -25 -63 -44 -121 -19 -58 -40 -118
-45 -135 -6 -16 -49 -147 -96 -290 -47 -143 -90 -269 -95 -280 -4 -11 -11 -31
-14 -45 -7 -37 -114 -352 -126 -372 -5 -10 -10 -27 -10 -38 0 -11 -5 -28 -10
-38 -10 -16 -111 -314 -129 -377 -5 -16 -12 -38 -16 -47 -5 -13 -2 -18 11 -18
14 0 24 15 38 63 11 34 25 76 32 92 7 17 27 77 45 135 18 58 36 112 39 120 4
8 15 40 24 70 9 30 23 71 30 90 8 19 22 62 32 95 10 33 22 64 26 70 4 5 8 17
8 27 0 9 6 32 14 50 8 18 28 78 46 133 17 55 42 129 54 165 13 36 38 110 55
165 18 55 36 109 41 120 4 11 16 45 24 75 9 30 23 71 30 90 7 19 21 60 31 90
9 30 20 64 25 75 17 42 39 111 45 143 4 17 12 32 19 32 18 0 36 -21 36 -43 0
-10 6 -33 14 -50 8 -18 22 -57 31 -87 10 -30 28 -84 41 -120 12 -36 25 -76 29
-90 3 -14 10 -34 15 -45 5 -11 16 -45 25 -75 9 -30 22 -71 30 -90 7 -19 21
-62 31 -95 10 -33 22 -64 26 -70 4 -5 8 -18 8 -30 0 -11 7 -33 15 -49 8 -15
15 -34 15 -42 0 -7 6 -28 14 -46 8 -18 22 -60 32 -93 10 -33 21 -64 25 -70 4
-5 10 -26 14 -45 4 -19 11 -41 15 -50 9 -18 23 -59 52 -150 11 -36 24 -74 29
-85 4 -11 22 -65 39 -120 18 -55 38 -113 44 -130 7 -16 27 -76 45 -131 28 -87
36 -101 51 -97 14 4 17 9 10 22 -5 9 -30 81 -56 161 -26 80 -50 152 -55 161
-4 9 -11 33 -14 53 -4 20 -11 39 -16 42 -5 3 -9 12 -9 21 0 8 -6 29 -14 46 -8
18 -16 43 -19 57 -5 23 -49 157 -68 205 -4 11 -22 65 -40 120 -17 55 -35 107
-38 115 -4 8 -35 103 -70 210 -35 107 -70 209 -77 227 -8 17 -14 38 -14 46 0
9 -4 19 -10 22 -5 3 -10 15 -10 27 0 11 -6 34 -14 51 -20 48 -117 338 -123
370 -9 45 -44 36 -65 -16z"/>
<path d="M6058 6663 c-2 -5 -2 -457 0 -1005 l2 -998 446 0 c352 0 445 3 442
13 -4 9 -102 13 -429 17 l-424 5 -3 988 c-2 850 -4 987 -16 987 -8 0 -16 -3
-18 -7z"/>
<path d="M7620 5898 c0 -849 -3 -804 61 -933 29 -58 89 -129 160 -189 44 -37
151 -87 214 -99 102 -20 285 -8 341 21 11 5 37 18 59 28 22 11 51 29 65 42 13
12 28 22 32 22 14 0 81 77 122 140 41 64 69 132 80 198 3 18 6 372 6 785 1
661 -1 752 -14 755 -14 3 -16 -90 -18 -780 -3 -641 -6 -789 -17 -818 -70 -175
-153 -260 -342 -351 -9 -4 -52 -13 -95 -19 -80 -12 -220 -2 -261 18 -10 5 -45
22 -78 38 -66 31 -188 147 -217 205 -78 157 -78 168 -78 994 1 483 -3 711 -10
713 -7 3 -10 -239 -10 -770z"/>
<path d="M2080 4330 c37 -12 6638 -12 6645 0 4 7 -1149 10 -3332 9 -1836 -1
-3327 -5 -3313 -9z"/>
<path d="M3925 3928 c-3 -13 -5 -72 -3 -133 l3 -110 53 0 c60 0 76 18 20 23
-31 3 -39 8 -44 28 -10 38 2 52 43 56 52 4 53 32 1 36 -28 2 -37 8 -42 27 -10
37 2 54 42 57 26 2 38 8 40 21 3 14 -5 17 -52 17 -49 0 -56 -3 -61 -22z"/>
<path d="M4248 3934 c-44 -23 -68 -66 -68 -119 0 -54 21 -95 60 -119 42 -24
150 -19 150 8 0 7 -21 10 -62 8 -59 -3 -65 -1 -92 27 -22 23 -29 40 -30 73 -1
50 18 75 77 103 34 16 40 16 69 2 41 -20 58 -10 27 14 -29 22 -92 23 -131 3z"/>
<path d="M4620 3940 c-8 -5 -23 -11 -32 -14 -32 -9 -53 -56 -53 -118 0 -52 4
-61 33 -90 29 -30 38 -33 90 -33 53 0 62 3 92 33 63 63 50 167 -27 212 -36 21
-77 25 -103 10z m119 -61 c14 -16 20 -39 21 -68 0 -37 -5 -49 -32 -73 -44 -39
-95 -39 -137 1 -24 23 -31 37 -31 68 0 36 19 77 44 96 6 4 34 6 63 4 40 -3 57
-9 72 -28z"/>
<path d="M4961 3935 c-54 -30 -48 -81 15 -124 31 -21 35 -29 32 -60 -2 -30 -7
-37 -28 -39 -14 -2 -32 -5 -40 -8 -13 -4 -13 -6 0 -14 44 -28 100 7 100 63 0
27 -9 42 -46 76 -56 53 -55 74 4 81 42 5 43 5 22 23 -23 20 -26 20 -59 2z"/>
<path d="M5595 3928 c-3 -13 -5 -72 -3 -133 l3 -110 39 -3 c22 -2 51 -1 65 3
35 9 9 25 -42 25 l-38 0 3 43 c2 31 7 41 18 39 8 -2 30 -1 48 3 45 8 28 28
-25 29 -37 1 -38 2 -38 41 0 39 1 40 38 43 29 3 37 7 37 23 0 16 -7 19 -50 19
-43 0 -50 -3 -55 -22z"/>
<path d="M5822 3933 c2 -13 15 -19 48 -23 l45 -5 5 -109 c3 -73 9 -111 17
-113 9 -3 13 25 15 109 l3 113 40 5 c27 3 40 10 40 20 0 12 -20 16 -108 18
-100 2 -108 1 -105 -15z"/>
<path d="M6156 3935 c-9 -24 -7 -243 2 -249 4 -2 14 -1 20 3 9 6 12 39 8 125
-4 112 -15 158 -30 121z"/>
<path d="M6404 3933 c-42 -20 -64 -61 -64 -118 0 -82 52 -135 132 -135 55 0
78 10 77 34 0 11 -3 15 -6 9 -3 -8 -25 -13 -62 -13 -50 0 -61 4 -84 28 -37 38
-39 118 -4 148 53 46 79 52 123 30 36 -20 53 -8 23 15 -29 22 -91 23 -135 2z"/>
<path d="M5210 3815 c0 -112 2 -125 18 -125 15 0 17 10 13 91 -3 83 -1 91 14
85 9 -3 20 -6 25 -6 4 0 10 -9 13 -20 3 -11 10 -20 16 -20 17 0 13 15 -9 35
-11 10 -20 23 -20 28 0 12 -48 57 -61 57 -5 0 -9 -53 -9 -125z"/>
<path d="M5413 3914 c-16 -24 -16 -27 0 -36 14 -7 17 -25 17 -104 0 -72 3 -95
13 -92 8 3 13 37 15 109 4 148 -7 180 -45 123z"/>
<path d="M6781 3898 c-10 -24 -26 -63 -36 -88 -9 -25 -21 -52 -26 -60 -18 -30
-21 -40 -15 -56 8 -20 26 -8 26 18 0 31 29 47 82 48 42 0 48 -3 68 -35 24 -39
40 -45 40 -15 0 11 -4 20 -10 20 -5 0 -13 12 -16 28 -4 15 -10 32 -14 37 -4 6
-11 25 -15 43 -3 17 -11 32 -16 32 -5 0 -9 10 -9 23 0 23 -17 47 -32 47 -4 0
-16 -19 -27 -42z m61 -63 c9 -36 3 -45 -32 -45 -37 0 -42 9 -29 53 8 31 12 35
31 28 12 -4 25 -21 30 -36z"/>
<path d="M5376 3865 c-3 -8 -1 -17 3 -20 5 -3 11 2 15 10 3 8 1 17 -3 20 -5 3
-11 -2 -15 -10z"/>
<path d="M5332 3828 c-14 -14 -16 -38 -3 -38 12 0 41 29 41 41 0 13 -24 11
-38 -3z"/>
</g>
</svg>
